<svg width="19" height="11" viewBox="0 0 19 11" fill="none" xmlns="http://www.w3.org/2000/svg">
<path d="M0.999998 6.00579L15.59 6.0058L13.29 8.2958C13.1968 8.38903 13.1228 8.49972 13.0723 8.62155C13.0219 8.74337 12.9959 8.87394 12.9959 9.0058C12.9959 9.13765 13.0219 9.26822 13.0723 9.39004C13.1228 9.51187 13.1968 9.62256 13.29 9.7158C13.3832 9.80903 13.4939 9.88299 13.6157 9.93345C13.7376 9.98392 13.8681 10.0099 14 10.0099C14.1319 10.0099 14.2624 9.98392 14.3842 9.93346C14.5061 9.88299 14.6168 9.80903 14.71 9.7158L18.71 5.7158C18.801 5.62069 18.8724 5.50855 18.92 5.3858C19.02 5.14233 19.02 4.86926 18.92 4.6258C18.8724 4.50304 18.801 4.3909 18.71 4.2958L14.71 0.295797C14.617 0.202069 14.5064 0.127673 14.3846 0.0769039C14.2627 0.026135 14.132 -2.33249e-06 14 -2.34403e-06C13.868 -2.35557e-06 13.7373 0.026135 13.6154 0.0769038C13.4936 0.127673 13.383 0.202069 13.29 0.295797C13.1963 0.38876 13.1219 0.49936 13.0711 0.621219C13.0203 0.743079 12.9942 0.873784 12.9942 1.0058C12.9942 1.13781 13.0203 1.26851 13.0711 1.39037C13.1219 1.51223 13.1963 1.62283 13.29 1.7158L15.59 4.0058L0.999999 4.00579C0.734782 4.00579 0.480427 4.11115 0.292891 4.29869C0.105355 4.48622 -1.44669e-06 4.74058 -1.46988e-06 5.00579C-1.49306e-06 5.27101 0.105355 5.52536 0.292891 5.7129C0.480427 5.90044 0.734782 6.00579 0.999998 6.00579Z" fill="#304F8C"/>
</svg>
