<svg width="40" height="41" viewBox="0 0 40 41" fill="none" xmlns="http://www.w3.org/2000/svg">
<path d="M39.0371 39.3981L35.8926 18.4634C35.8926 18.3772 35.8495 18.2911 35.8495 18.2049L33.7388 12.5189C33.5665 12.002 33.0496 11.6574 32.5327 11.6574H29.1728L29.6897 7.82369C30.0343 5.32531 28.2682 2.99922 25.7698 2.65462L25.0806 2.56847C22.8407 2.26694 20.6869 3.60228 19.9977 5.79914L19.4377 7.65139L16.8531 0.845443C16.6378 0.242384 15.9916 -0.102221 15.3886 0.027006L9.18568 1.31927C8.49647 1.4485 8.06572 2.13771 8.19495 2.82692L9.87489 11.6574H6.515C5.95501 11.6574 5.48118 12.002 5.30888 12.5189L3.24125 18.248C3.19817 18.2911 3.1551 18.3772 3.1551 18.4634L0.0105773 39.3981C-0.0324983 39.7858 0.0536531 40.1304 0.312107 40.4319C0.570561 40.7335 0.915165 40.8627 1.30285 40.8627H37.7448C38.1325 40.8627 38.4771 40.6904 38.7356 40.4319C38.994 40.1735 39.0802 39.7858 39.0371 39.3981ZM31.6281 14.242L32.9634 17.8603H28.3543L28.8282 14.242H31.6281ZM22.453 6.53142C22.7545 5.58376 23.7022 4.9807 24.6929 5.10993L25.3821 5.19608C26.459 5.36838 27.2344 6.35912 27.1051 7.47909L25.7267 17.8603H18.9639L22.453 6.53142ZM14.7855 2.78385L18.1454 11.6574L16.207 17.9034H13.7086L10.9518 3.60228L14.7855 2.78385ZM7.41958 14.242H10.3918L11.081 17.8603H6.08424L7.41958 14.242ZM2.81049 38.3212L5.48118 20.4879H33.5665L36.2372 38.3212H2.81049Z" fill="#4C5D73"/>
</svg>
