<svg width="22" height="52" viewBox="0 0 22 52" fill="none" xmlns="http://www.w3.org/2000/svg">
<path d="M18.6609 20.0106C17.2265 18.5763 16.5414 16.5212 16.8283 14.5131C17.0842 12.7222 16.8777 10.8824 16.2315 9.19263L15.0118 6.00377C15.3647 5.84462 15.6109 5.49047 15.6109 5.07812V2.64062C15.6109 1.18462 14.4264 0 12.9703 0H9.03141C7.57531 0 6.39078 1.18462 6.39078 2.64062V5.07812C6.39078 5.48986 6.63626 5.8436 6.98838 6.00305L5.76851 9.19263C5.12227 10.8824 4.91579 12.7222 5.17173 14.5131C5.45854 16.5212 4.7735 18.5763 3.33914 20.0106C1.73181 21.618 0.846588 23.7551 0.846588 26.0281V46.9219C0.846588 49.722 3.12464 52 5.92471 52H16.0752C18.8753 52 21.1533 49.722 21.1533 46.9219V26.0281C21.1534 23.7551 20.2682 21.618 18.6609 20.0106ZM7.10385 13.3552C7.05693 12.1868 7.24685 11.0136 7.6657 9.91829L9.1284 6.09375H12.8715L14.3342 9.91829C14.7532 11.0142 14.9432 12.188 14.8959 13.357L11.0007 17.2522L7.10385 13.3552ZM8.42203 2.64062C8.42203 2.30455 8.69534 2.03125 9.03141 2.03125H12.9703C13.3064 2.03125 13.5797 2.30455 13.5797 2.64062V4.0625H13.5704H8.42945H8.42203V2.64062ZM15.5703 34.2407H19.0679C19.1026 34.5446 19.1222 34.8529 19.1222 35.1659V37.7842C19.1222 38.0972 19.1026 38.4056 19.0679 38.7094H2.93217C2.89754 38.4056 2.87794 38.0972 2.87794 37.7842V35.1659C2.87794 34.8529 2.89754 34.5446 2.93217 34.2407H15.4297C15.9905 34.2407 16.4453 33.786 16.4453 33.2251C16.4453 32.6641 15.9905 32.2094 15.4297 32.2094H3.43735C4.62228 29.1891 7.56434 27.0439 11 27.0439C14.4357 27.0439 17.3776 29.1891 18.5626 32.2094H15.5703C15.0095 32.2094 14.5547 32.6641 14.5547 33.2251C14.5547 33.786 15.0095 34.2407 15.5703 34.2407ZM18.5626 40.7407C17.3776 43.761 14.4356 45.9062 11 45.9062C7.56444 45.9062 4.62238 43.761 3.43735 40.7407H18.5626ZM19.1222 46.9219C19.1222 48.6019 17.7553 49.9688 16.0753 49.9688H5.92482C4.24477 49.9688 2.87794 48.6019 2.87794 46.9219V43.8702C4.73186 46.3382 7.68256 47.9375 11 47.9375C14.3174 47.9375 17.2681 46.3382 19.1222 43.8702V46.9219ZM11 25.0125C7.68256 25.0125 4.73186 26.6118 2.87784 29.0798V26.0281C2.87784 24.2975 3.55181 22.6706 4.77553 21.4469C6.15536 20.067 7.00646 18.2496 7.21557 16.3395L10.2828 19.4067C10.4811 19.605 10.741 19.7041 11.0009 19.7041C11.2608 19.7041 11.5207 19.605 11.7191 19.4067L14.7846 16.3411C14.994 18.2506 15.845 20.0673 17.2245 21.4469C18.4482 22.6706 19.1222 24.2975 19.1222 26.0281V29.0798C17.2681 26.6119 14.3174 25.0125 11 25.0125Z" fill="#4C5D73"/>
</svg>
