<svg width="28" height="27" viewBox="0 0 28 27" fill="none" xmlns="http://www.w3.org/2000/svg">
<path d="M27.1923 12.6384H21.2692V0.861719C21.2692 0.385848 20.9075 0 20.4615 0H7.53854C7.0925 0 6.73083 0.385848 6.73083 0.861719V12.6384H0.807709C0.361664 12.6384 0 13.024 0 13.4999V26.1383C0 26.6142 0.361664 27 0.807709 27H27.1923C27.6383 27 28 26.6142 28 26.1383V13.4999C28 13.024 27.6383 12.6384 27.1923 12.6384ZM19.1154 14.3616H21.8077V18.383H19.1154V14.3616ZM15.3463 1.72344V5.74464H12.6537V1.72344H15.3463ZM8.34625 1.72344H11.0385V6.60636C11.0385 7.08223 11.4 7.46808 11.8463 7.46808H16.1537C16.6 7.46808 16.9615 7.08223 16.9615 6.60636V1.72344H19.6537V12.6384H8.34625V1.72344ZM8.61542 14.3616V18.383H5.92313V14.3616H8.61542ZM1.61542 14.3616H4.30771V19.2448C4.30771 19.7206 4.66937 20.1065 5.11542 20.1065H9.42313C9.86917 20.1065 10.2308 19.7206 10.2308 19.2448V14.3616H13.1923V25.2766H1.61542V14.3616ZM26.3846 25.2766H14.8077V14.3616H17.5V19.2448C17.5 19.7206 17.8617 20.1065 18.3077 20.1065H22.6154C23.0615 20.1065 23.4231 19.7206 23.4231 19.2448V14.3616H26.3846V25.2766Z" fill="#4C5D73"/>
</svg>
