<svg width="20" height="20" viewBox="0 0 20 20" fill="none" xmlns="http://www.w3.org/2000/svg">
<path d="M19.0004 17.9987H16.0017C15.7366 17.9987 15.4823 17.8932 15.2949 17.7056C15.1074 17.5179 15.0021 17.2634 15.0021 16.998V13.996C16.1952 13.985 17.345 13.547 18.2437 12.7613C19.1424 11.9755 19.7306 10.8939 19.902 9.71181C20.0735 8.52975 19.8168 7.32528 19.1785 6.31613C18.5401 5.30699 17.5622 4.55976 16.4215 4.20951C15.8108 2.80458 14.7567 1.63888 13.4208 0.89103C12.085 0.143183 10.541 -0.145553 9.02559 0.0690666C7.51014 0.283686 6.10678 0.989822 5.03057 2.07927C3.95435 3.16871 3.26465 4.58137 3.06714 6.10076C2.11413 6.32924 1.27812 6.90013 0.71787 7.70502C0.157622 8.50991 -0.0878437 9.49275 0.028087 10.4669C0.144018 11.441 0.613271 12.3386 1.34673 12.9892C2.0802 13.6398 3.02679 13.9981 4.00675 13.996H5.00632V16.998C5.00632 17.2634 4.90101 17.5179 4.71355 17.7056C4.5261 17.8932 4.27185 17.9987 4.00675 17.9987H1.00801C0.742905 17.9987 0.488659 18.1041 0.301201 18.2918C0.113744 18.4794 0.00843173 18.7339 0.00843173 18.9993C0.00843173 19.2647 0.113744 19.5193 0.301201 19.7069C0.488659 19.8946 0.742905 20 1.00801 20H4.00675C4.80206 20 5.5648 19.6837 6.12717 19.1207C6.68954 18.5578 7.00548 17.7942 7.00548 16.998V13.996H9.00464V18.9993C9.00464 19.2647 9.10995 19.5193 9.29741 19.7069C9.48486 19.8946 9.73911 20 10.0042 20C10.2693 20 10.5236 19.8946 10.711 19.7069C10.8985 19.5193 11.0038 19.2647 11.0038 18.9993V13.996H13.003V16.998C13.003 17.7942 13.3189 18.5578 13.8813 19.1207C14.4436 19.6837 15.2064 20 16.0017 20H19.0004C19.2655 20 19.5198 19.8946 19.7072 19.7069C19.8947 19.5193 20 19.2647 20 18.9993C20 18.7339 19.8947 18.4794 19.7072 18.2918C19.5198 18.1041 19.2655 17.9987 19.0004 17.9987ZM4.00675 11.9947C3.47654 11.9947 2.96804 11.7838 2.59313 11.4085C2.21821 11.0332 2.00759 10.5241 2.00759 9.99335C2.00759 9.46257 2.21821 8.95352 2.59313 8.5782C2.96804 8.20288 3.47654 7.99202 4.00675 7.99202C4.27185 7.99202 4.5261 7.88659 4.71355 7.69893C4.90101 7.51127 5.00632 7.25675 5.00632 6.99136C5.00888 5.80785 5.43043 4.66356 6.19609 3.76179C6.96175 2.86003 8.02194 2.25916 9.18831 2.06596C10.3547 1.87275 11.5517 2.09971 12.5667 2.70652C13.5817 3.31332 14.349 4.26068 14.7322 5.38029C14.7894 5.55224 14.8921 5.70543 15.0294 5.82351C15.1667 5.94159 15.3335 6.02013 15.5119 6.05073C16.2058 6.17055 16.8354 6.53098 17.2905 7.06887C17.7455 7.60676 17.997 8.28781 18.0008 8.99269C18.0008 9.78886 17.6849 10.5524 17.1225 11.1154C16.5602 11.6784 15.7974 11.9947 15.0021 11.9947H4.00675Z" fill="#304F8C"/>
</svg>
