<svg width="42" height="42" viewBox="0 0 42 42" fill="none" xmlns="http://www.w3.org/2000/svg">
<g clip-path="url(#clip0_1_302)">
<path d="M21.0001 32.0744C20.5955 32.0744 20.2168 31.8755 19.9872 31.5425L6.86223 12.5113C6.6026 12.1349 6.57315 11.6456 6.78578 11.2407C6.99832 10.8359 7.4179 10.5823 7.87514 10.5823H34.125C34.5822 10.5823 35.0017 10.8359 35.2144 11.2407C35.427 11.6456 35.3974 12.1349 35.1379 12.5113L22.013 31.5425C21.7832 31.8755 21.4046 32.0744 21.0001 32.0744ZM10.2184 13.0432L21 28.6766L31.7816 13.0432H10.2184Z" fill="#4C5D73"/>
<path d="M21 42.0001C20.3205 42.0001 19.7696 41.4491 19.7696 40.7696V30.8438C19.7696 30.1643 20.3205 29.6133 21 29.6133C21.6796 29.6133 22.2305 30.1643 22.2305 30.8438V40.7696C22.2305 41.4491 21.6796 42.0001 21 42.0001Z" fill="#4C5D73"/>
<path d="M30.1875 42H11.8126C11.133 42 10.5821 41.4491 10.5821 40.7695C10.5821 40.09 11.133 39.5391 11.8126 39.5391H30.1875C30.867 39.5391 31.4179 40.09 31.4179 40.7695C31.4179 41.4491 30.867 42 30.1875 42Z" fill="#4C5D73"/>
<path d="M20.999 23.5433C20.8147 23.5433 20.6277 23.5018 20.4514 23.414C19.8432 23.1111 19.5956 22.3724 19.8986 21.7641L30.3985 0.682152C30.7014 0.0738938 31.4401 -0.173675 32.0485 0.129347C32.6568 0.432286 32.9043 1.17106 32.6013 1.77931L22.1014 22.8612C21.8862 23.2933 21.4511 23.5433 20.999 23.5433Z" fill="#4C5D73"/>
<path d="M28.7499 20.8354C28.5154 20.8354 28.2784 20.7685 28.0686 20.6287L26.2237 19.399C25.4422 18.8778 24.4326 18.8778 23.6514 19.3989C22.0406 20.4727 19.9593 20.4727 18.3487 19.3989C17.5674 18.8781 16.5576 18.8781 15.7764 19.3989L13.9313 20.6287C13.3658 21.0056 12.6019 20.8527 12.225 20.2873C11.8481 19.7218 12.001 18.9578 12.5664 18.5809L14.4113 17.3513C16.0217 16.2776 18.1032 16.2776 19.7138 17.3514C20.4951 17.8723 21.5047 17.8723 22.2862 17.3514C23.8968 16.2773 25.9783 16.2774 27.5889 17.3515L29.4335 18.5809C29.999 18.9578 30.1518 19.7217 29.7749 20.2873C29.5379 20.6429 29.1476 20.8354 28.7499 20.8354Z" fill="#4C5D73"/>
</g>
<defs>
<clipPath id="clip0_1_302">
<rect width="42" height="42" fill="white"/>
</clipPath>
</defs>
</svg>
