<svg width="68" height="68" viewBox="0 0 68 68" fill="none" xmlns="http://www.w3.org/2000/svg">
<path d="M67.5 0.5L42.004 0.506V32.005H53.17L53.183 32.491L53.358 38.688C53.358 49.054 47.912 54.386 37.184 54.546V67.18C40.576 67.394 43 67.5 44.597 67.5C59.88 67.5 67.5 56.802 67.5 35.144V0.5ZM3.44499 32.5V32.488L3.66699 32.055L3.67299 32.058L3.44599 32.5H3.44499ZM3.93899 32.003H15.11L15.124 32.489L15.298 38.683C15.298 48.448 10.315 53.774 0.498993 54.515V67.183C3.33499 67.391 5.35199 67.495 6.53499 67.495C21.817 67.495 29.437 56.798 29.437 35.142V0.5H3.93699V32.002L3.93899 32.003Z" stroke="#A0B3D9"/>
</svg>
