<svg width="20" height="20" viewBox="0 0 20 20" fill="none" xmlns="http://www.w3.org/2000/svg">
<path d="M16.2689 0.977783H3.41999C2.68976 0.977783 1.98944 1.26787 1.47309 1.78422C0.956739 2.30057 0.666656 3.00089 0.666656 3.73112V12.9089C0.666656 13.6391 0.956739 14.3394 1.47309 14.8558C1.98944 15.3721 2.68976 15.6622 3.41999 15.6622H6.17332V17.4978H3.41999C3.17658 17.4978 2.94314 17.5945 2.77102 17.7666C2.59891 17.9387 2.50221 18.1722 2.50221 18.4156C2.50221 18.659 2.59891 18.8924 2.77102 19.0645C2.94314 19.2366 3.17658 19.3333 3.41999 19.3333H16.2689C16.5123 19.3333 16.7457 19.2366 16.9178 19.0645C17.09 18.8924 17.1867 18.659 17.1867 18.4156C17.1867 18.1722 17.09 17.9387 16.9178 17.7666C16.7457 17.5945 16.5123 17.4978 16.2689 17.4978H13.5155V15.6622H16.2689C16.9991 15.6622 17.6994 15.3721 18.2158 14.8558C18.7321 14.3394 19.0222 13.6391 19.0222 12.9089V3.73112C19.0222 3.00089 18.7321 2.30057 18.2158 1.78422C17.6994 1.26787 16.9991 0.977783 16.2689 0.977783ZM11.68 17.4978H8.00888V15.6622H11.68V17.4978ZM17.1867 12.9089C17.1867 13.1523 17.09 13.3857 16.9178 13.5579C16.7457 13.73 16.5123 13.8267 16.2689 13.8267H3.41999C3.17658 13.8267 2.94314 13.73 2.77102 13.5579C2.59891 13.3857 2.50221 13.1523 2.50221 12.9089V11.9911H17.1867V12.9089ZM17.1867 10.1556H2.50221V3.73112C2.50221 3.48771 2.59891 3.25427 2.77102 3.08215C2.94314 2.91003 3.17658 2.81334 3.41999 2.81334H16.2689C16.5123 2.81334 16.7457 2.91003 16.9178 3.08215C17.09 3.25427 17.1867 3.48771 17.1867 3.73112V10.1556Z" fill="#304F8C"/>
</svg>
