<svg width="24" height="19" viewBox="0 0 24 19" fill="none" xmlns="http://www.w3.org/2000/svg">
<path d="M12.344 9.74588C12.9269 9.22968 13.3944 8.59122 13.7149 7.87385C14.0353 7.15647 14.2011 6.37697 14.2011 5.58824C14.2011 4.10614 13.6256 2.68475 12.6013 1.63676C11.577 0.588759 10.1877 1.99959e-07 8.73914 1.99959e-07C7.29054 1.99959e-07 5.90127 0.588759 4.87695 1.63676C3.85263 2.68475 3.27718 4.10614 3.27718 5.58824C3.27717 6.37697 3.443 7.15647 3.76343 7.87385C4.08385 8.59122 4.55137 9.22968 5.13424 9.74588C3.60505 10.4543 2.30764 11.5984 1.39715 13.0413C0.486656 14.4842 0.00160784 16.1649 0 17.8824C0 18.1788 0.115091 18.4631 0.319954 18.6726C0.524818 18.8822 0.802672 19 1.09239 19C1.38211 19 1.65997 18.8822 1.86483 18.6726C2.06969 18.4631 2.18478 18.1788 2.18478 17.8824C2.18478 16.1038 2.87533 14.3982 4.10451 13.1406C5.33369 11.883 7.00082 11.1765 8.73914 11.1765C10.4775 11.1765 12.1446 11.883 13.3738 13.1406C14.6029 14.3982 15.2935 16.1038 15.2935 17.8824C15.2935 18.1788 15.4086 18.4631 15.6134 18.6726C15.8183 18.8822 16.0962 19 16.3859 19C16.6756 19 16.9535 18.8822 17.1583 18.6726C17.3632 18.4631 17.4783 18.1788 17.4783 17.8824C17.4767 16.1649 16.9916 14.4842 16.0811 13.0413C15.1706 11.5984 13.8732 10.4543 12.344 9.74588ZM8.73914 8.94118C8.09097 8.94118 7.45737 8.74453 6.91844 8.3761C6.37951 8.00768 5.95946 7.48402 5.71142 6.87135C5.46338 6.25868 5.39848 5.58452 5.52493 4.93411C5.65138 4.2837 5.9635 3.68627 6.42183 3.21735C6.88015 2.74843 7.46408 2.42909 8.09979 2.29972C8.7355 2.17035 9.39443 2.23675 9.99326 2.49052C10.5921 2.7443 11.1039 3.17405 11.464 3.72544C11.8241 4.27683 12.0163 4.92509 12.0163 5.58824C12.0163 6.47749 11.671 7.33032 11.0565 7.95912C10.4419 8.58792 9.6083 8.94118 8.73914 8.94118ZM19.379 9.29882C20.0781 8.49337 20.5348 7.49836 20.6941 6.43356C20.8533 5.36876 20.7084 4.27955 20.2767 3.29706C19.8451 2.31456 19.145 1.48065 18.2609 0.895708C17.3768 0.310762 16.3463 -0.000287906 15.2935 1.99959e-07C15.0038 1.99959e-07 14.7259 0.117752 14.5211 0.327351C14.3162 0.536951 14.2011 0.821229 14.2011 1.11765C14.2011 1.41407 14.3162 1.69834 14.5211 1.90794C14.7259 2.11754 15.0038 2.23529 15.2935 2.23529C16.1627 2.23529 16.9962 2.58855 17.6108 3.21735C18.2254 3.84615 18.5707 4.69898 18.5707 5.58824C18.5691 6.17527 18.417 6.7516 18.1294 7.25959C17.8419 7.76758 17.429 8.18943 16.9321 8.48294C16.7701 8.57852 16.6349 8.71504 16.5392 8.87942C16.4436 9.04379 16.3908 9.23054 16.3859 9.42177C16.3813 9.6115 16.424 9.7993 16.5101 9.96746C16.5961 10.1356 16.7225 10.2786 16.8775 10.3829L17.3035 10.6735L17.4455 10.7518C18.7623 11.3907 19.8731 12.4014 20.6473 13.6647C21.4214 14.928 21.8266 16.3913 21.8151 17.8824C21.8151 18.1788 21.9302 18.4631 22.135 18.6726C22.3399 18.8822 22.6177 19 22.9075 19C23.1972 19 23.475 18.8822 23.6799 18.6726C23.8848 18.4631 23.9999 18.1788 23.9999 17.8824C24.0088 16.1672 23.5889 14.4783 22.7802 12.976C21.9714 11.4736 20.8006 10.2078 19.379 9.29882Z" fill="#4C5D73"/>
</svg>
