<svg width="56" height="32" viewBox="0 0 56 32" fill="none" xmlns="http://www.w3.org/2000/svg">
<path d="M55.482 15.2853C55.307 13.6517 54.8986 10.5013 54.2569 7.876C53.3234 4.02551 50.7564 0 48.0728 0C47.4893 0 46.9643 0.466726 46.9643 1.10847V15.9854L46.2642 27.1868C46.2058 28.2953 46.6142 29.3454 47.3143 30.1622C48.0728 30.9789 49.1229 31.4457 50.2314 31.4457C51.3398 31.4457 52.39 30.9789 53.1484 30.1622C53.9068 29.3454 54.3152 28.2953 54.1985 27.1868L53.5568 17.2689H53.6735C54.1985 17.2689 54.6653 17.0355 55.0153 16.6854C55.3653 16.2771 55.5404 15.752 55.482 15.2853ZM49.1229 2.80035C50.2314 3.79215 51.4565 5.89241 52.0983 8.40107C52.6817 10.7347 53.0317 13.5934 53.2067 15.0519H49.1229V2.80035ZM51.9816 27.3035C52.0399 27.8285 51.8649 28.2953 51.5149 28.6453C51.1648 28.9953 50.6981 29.2287 50.2314 29.2287C49.7063 29.2287 49.2979 29.0537 48.9479 28.6453C48.5978 28.2953 48.4228 27.8285 48.4811 27.3035L49.1229 17.2689H51.4565L51.9816 27.3035Z" fill="#4C5D73"/>
<path d="M9.56788 0.291748C8.98447 0.291748 8.45941 0.758474 8.45941 1.40022V9.68461C8.45941 10.093 8.10936 10.5014 7.64264 10.5014H6.41748V1.40022C6.41748 0.816814 5.95076 0.291748 5.30901 0.291748C4.66726 0.291748 4.20053 0.758474 4.20053 1.40022V10.5014H3.03372C2.62533 10.5014 2.21695 10.1513 2.21695 9.68461V1.40022C2.21695 0.816814 1.75022 0.291748 1.10847 0.291748C0.466726 0.291748 0 0.758474 0 1.40022V9.68461C0 11.0848 0.933452 12.2516 2.21695 12.6016L1.40018 27.1285C1.34184 28.237 1.75022 29.2871 2.45031 30.1039C3.20874 30.9206 4.25887 31.3874 5.36735 31.3874C6.47582 31.3874 7.52596 30.9206 8.28438 30.1039C9.04281 29.2871 9.4512 28.237 9.33452 27.1285L8.45941 12.6016C9.7429 12.2516 10.6764 11.0848 10.6764 9.68461V1.40022C10.6764 0.816814 10.1513 0.291748 9.56788 0.291748ZM6.65084 28.587C6.3008 28.937 5.83407 29.1704 5.36735 29.1704C4.84228 29.1704 4.4339 28.9954 4.08385 28.587C3.73381 28.237 3.55878 27.7702 3.61713 27.2452L4.49224 12.66H6.24246L7.11757 27.2452C7.17591 27.7702 7.00089 28.237 6.65084 28.587Z" fill="#4C5D73"/>
<path d="M28.4703 0.174988C19.8942 0.174988 12.9516 7.11754 12.9516 15.6936C12.9516 24.2697 19.8942 31.2123 28.4703 31.2123C37.0464 31.2123 43.9889 24.2697 43.9889 15.6936C43.9889 7.11754 37.0464 0.174988 28.4703 0.174988ZM28.4703 28.9953C21.1193 28.9953 15.1686 23.0446 15.1686 15.6936C15.1686 8.34269 21.1193 2.39194 28.4703 2.39194C35.8212 2.39194 41.8303 8.34269 41.8303 15.6936C41.8303 23.0446 35.8212 28.9953 28.4703 28.9953Z" fill="#4C5D73"/>
<path d="M28.4703 5.25067C22.6945 5.25067 18.0273 9.91793 18.0273 15.6937C18.0273 21.4694 22.6945 26.1367 28.4703 26.1367C34.246 26.1367 38.9133 21.4694 38.9133 15.6937C38.9133 9.91793 34.246 5.25067 28.4703 5.25067ZM28.4703 23.9197C23.9197 23.9197 20.2442 20.2442 20.2442 15.6937C20.2442 11.1431 23.9197 7.46762 28.4703 7.46762C33.0209 7.46762 36.6963 11.1431 36.6963 15.6937C36.6963 20.2442 33.0209 23.9197 28.4703 23.9197Z" fill="#4C5D73"/>
</svg>
