<svg width="22" height="22" viewBox="0 0 22 22" fill="none" xmlns="http://www.w3.org/2000/svg">
<path d="M6.05 15.4C6.48761 15.4 6.90729 15.2262 7.21673 14.9167C7.52616 14.6073 7.7 14.1876 7.7 13.75C7.70537 13.6951 7.70537 13.6399 7.7 13.585L10.769 10.516H11.022H11.275L13.046 12.287C13.046 12.287 13.046 12.342 13.046 12.375C13.046 12.8126 13.2198 13.2323 13.5293 13.5417C13.8387 13.8512 14.2584 14.025 14.696 14.025C15.1336 14.025 15.5533 13.8512 15.8627 13.5417C16.1722 13.2323 16.346 12.8126 16.346 12.375V12.287L20.35 8.25C20.6763 8.25 20.9953 8.15323 21.2667 7.97193C21.538 7.79062 21.7495 7.53293 21.8744 7.23143C21.9993 6.92993 22.032 6.59817 21.9683 6.2781C21.9046 5.95803 21.7475 5.66403 21.5167 5.43327C21.286 5.20252 20.992 5.04537 20.6719 4.9817C20.3518 4.91804 20.0201 4.95071 19.7186 5.0756C19.4171 5.20048 19.1594 5.41197 18.9781 5.68331C18.7968 5.95465 18.7 6.27366 18.7 6.6C18.6946 6.65487 18.6946 6.71013 18.7 6.765L14.729 10.736H14.553L12.65 8.8C12.65 8.36239 12.4762 7.94271 12.1667 7.63327C11.8573 7.32384 11.4376 7.15 11 7.15C10.5624 7.15 10.1427 7.32384 9.83327 7.63327C9.52384 7.94271 9.35 8.36239 9.35 8.8L6.05 12.1C5.61239 12.1 5.19271 12.2738 4.88327 12.5833C4.57384 12.8927 4.4 13.3124 4.4 13.75C4.4 14.1876 4.57384 14.6073 4.88327 14.9167C5.19271 15.2262 5.61239 15.4 6.05 15.4ZM20.9 19.8H2.2V1.1C2.2 0.808262 2.08411 0.528472 1.87782 0.322183C1.67153 0.115892 1.39174 0 1.1 0C0.808262 0 0.528472 0.115892 0.322183 0.322183C0.115892 0.528472 0 0.808262 0 1.1V20.9C0 21.1917 0.115892 21.4715 0.322183 21.6778C0.528472 21.8841 0.808262 22 1.1 22H20.9C21.1917 22 21.4715 21.8841 21.6778 21.6778C21.8841 21.4715 22 21.1917 22 20.9C22 20.6083 21.8841 20.3285 21.6778 20.1222C21.4715 19.9159 21.1917 19.8 20.9 19.8Z" fill="#4C5D73"/>
</svg>
