<svg width="16" height="20" viewBox="0 0 16 20" fill="none" xmlns="http://www.w3.org/2000/svg">
<path d="M15.63 1.64836C15.5138 1.55438 15.3781 1.48763 15.2327 1.45302C15.0873 1.41841 14.9361 1.41681 14.79 1.44836C13.7214 1.6723 12.6183 1.67515 11.5486 1.45674C10.4789 1.23833 9.46525 0.80327 8.57001 0.178355C8.40261 0.062228 8.20374 0 8.00001 0C7.79627 0 7.5974 0.062228 7.43001 0.178355C6.53476 0.80327 5.52108 1.23833 4.45137 1.45674C3.38166 1.67515 2.27857 1.6723 1.21001 1.44836C1.06394 1.41681 0.912671 1.41841 0.767306 1.45302C0.621942 1.48763 0.486181 1.55438 0.370006 1.64836C0.253985 1.74247 0.160527 1.86139 0.0964981 1.99637C0.0324695 2.13135 -0.00050219 2.27896 5.78149e-06 2.42836V9.87836C-0.000883255 11.3121 0.340779 12.7253 0.996541 14.0003C1.6523 15.2753 2.60319 16.3752 3.77001 17.2084L7.42001 19.8084C7.58937 19.9289 7.7921 19.9937 8.00001 19.9937C8.20791 19.9937 8.41064 19.9289 8.58001 19.8084L12.23 17.2084C13.3968 16.3752 14.3477 15.2753 15.0035 14.0003C15.6592 12.7253 16.0009 11.3121 16 9.87836V2.42836C16.0005 2.27896 15.9675 2.13135 15.9035 1.99637C15.8395 1.86139 15.746 1.74247 15.63 1.64836ZM14 9.87836C14.0008 10.9931 13.7353 12.0919 13.2257 13.0834C12.716 14.0748 11.977 14.9302 11.07 15.5784L8.00001 17.7684L4.93001 15.5784C4.02304 14.9302 3.28399 14.0748 2.77435 13.0834C2.26472 12.0919 1.99924 10.9931 2.00001 9.87836V3.57836C4.09643 3.75779 6.19605 3.27138 8.00001 2.18836C9.80397 3.27138 11.9036 3.75779 14 3.57836V9.87836ZM9.54001 7.58836L6.85001 10.2884L5.96001 9.38836C5.7717 9.20005 5.51631 9.09426 5.25001 9.09426C4.9837 9.09426 4.72831 9.20005 4.54001 9.38836C4.3517 9.57666 4.24591 9.83205 4.24591 10.0984C4.24591 10.3647 4.3517 10.6201 4.54001 10.8084L6.14001 12.4084C6.23297 12.5021 6.34357 12.5765 6.46543 12.6272C6.58729 12.678 6.71799 12.7042 6.85001 12.7042C6.98202 12.7042 7.11272 12.678 7.23458 12.6272C7.35644 12.5765 7.46704 12.5021 7.56001 12.4084L11 8.99836C11.1883 8.81005 11.2941 8.55466 11.2941 8.28835C11.2941 8.02205 11.1883 7.76666 11 7.57836C10.8117 7.39005 10.5563 7.28426 10.29 7.28426C10.0237 7.28426 9.76831 7.39005 9.58001 7.57836L9.54001 7.58836Z" fill="#304F8C"/>
</svg>
